<svg xmlns="http://www.w3.org/2000/svg" xmlns:xlink="http://www.w3.org/1999/xlink" contentStyleType="text/css" height="757px" preserveAspectRatio="none" style="width:858px;height:757px;background:#FFFFFF;" version="1.1" viewBox="0 0 858 757" width="858px" zoomAndPan="magnify"><defs/><g><!--entity Titlecard--><g id="elem_Titlecard"><rect fill="#F1F1F1" height="62.5938" rx="2.5" ry="2.5" style="stroke:#181818;stroke-width:0.5;" width="146.4355" x="264.5" y="7"/><rect fill="#F1F1F1" height="10" style="stroke:#181818;stroke-width:0.5;" width="15" x="390.9355" y="12"/><rect fill="#F1F1F1" height="2" style="stroke:#181818;stroke-width:0.5;" width="4" x="388.9355" y="14"/><rect fill="#F1F1F1" height="2" style="stroke:#181818;stroke-width:0.5;" width="4" x="388.9355" y="18"/><text fill="#000000" font-family="sans-serif" font-size="14" font-weight="bold" lengthAdjust="spacing" textLength="70.0068" x="279.5" y="39.9951">Titlecard</text><text fill="#000000" font-family="sans-serif" font-size="14" lengthAdjust="spacing" textLength="106.4355" x="279.5" y="56.292">white?:boolean</text></g><!--entity GDSC--><g id="elem_GDSC"><rect fill="#F1F1F1" height="78.8906" rx="2.5" ry="2.5" style="stroke:#181818;stroke-width:0.5;" width="190.3086" x="242.5" y="147"/><rect fill="#F1F1F1" height="10" style="stroke:#181818;stroke-width:0.5;" width="15" x="412.8086" y="152"/><rect fill="#F1F1F1" height="2" style="stroke:#181818;stroke-width:0.5;" width="4" x="410.8086" y="154"/><rect fill="#F1F1F1" height="2" style="stroke:#181818;stroke-width:0.5;" width="4" x="410.8086" y="158"/><text fill="#000000" font-family="sans-serif" font-size="14" font-weight="bold" lengthAdjust="spacing" textLength="43.4697" x="257.5" y="179.9951">GDSC</text><text fill="#000000" font-family="sans-serif" font-size="14" lengthAdjust="spacing" textLength="79.707" x="257.5" y="196.292">title?:string</text><text fill="#000000" font-family="sans-serif" font-size="14" lengthAdjust="spacing" textLength="150.3086" x="257.5" y="212.5889">transparent?:boolean</text></g><!--entity Block--><g id="elem_Block"><rect fill="#F1F1F1" height="95.1875" rx="2.5" ry="2.5" style="stroke:#181818;stroke-width:0.5;" width="118.2373" x="278.5" y="360"/><rect fill="#F1F1F1" height="10" style="stroke:#181818;stroke-width:0.5;" width="15" x="376.7373" y="365"/><rect fill="#F1F1F1" height="2" style="stroke:#181818;stroke-width:0.5;" width="4" x="374.7373" y="367"/><rect fill="#F1F1F1" height="2" style="stroke:#181818;stroke-width:0.5;" width="4" x="374.7373" y="371"/><text fill="#000000" font-family="sans-serif" font-size="14" font-weight="bold" lengthAdjust="spacing" textLength="42.6973" x="293.5" y="392.9951">Block</text><text fill="#000000" font-family="sans-serif" font-size="14" lengthAdjust="spacing" textLength="74.0332" x="293.5" y="409.292">img?string</text><text fill="#000000" font-family="sans-serif" font-size="14" lengthAdjust="spacing" textLength="78.2373" x="293.5" y="425.5889">w?:number</text><text fill="#000000" font-family="sans-serif" font-size="14" lengthAdjust="spacing" textLength="75.6602" x="293.5" y="441.8857">h?:number</text></g><!--entity Bubbles--><g id="elem_Bubbles"><rect fill="#F1F1F1" height="144.0781" rx="2.5" ry="2.5" style="stroke:#181818;stroke-width:0.5;" width="160.8047" x="7" y="589"/><rect fill="#F1F1F1" height="10" style="stroke:#181818;stroke-width:0.5;" width="15" x="147.8047" y="594"/><rect fill="#F1F1F1" height="2" style="stroke:#181818;stroke-width:0.5;" width="4" x="145.8047" y="596"/><rect fill="#F1F1F1" height="2" style="stroke:#181818;stroke-width:0.5;" width="4" x="145.8047" y="600"/><text fill="#000000" font-family="sans-serif" font-size="14" font-weight="bold" lengthAdjust="spacing" textLength="63.3076" x="22" y="621.9951">Bubbles</text><text fill="#000000" font-family="sans-serif" font-size="14" lengthAdjust="spacing" textLength="120.8047" x="22" y="638.292">amount?:number</text><text fill="#000000" font-family="sans-serif" font-size="14" lengthAdjust="spacing" textLength="90.3301" x="22" y="654.5889">colors:Colors</text><text fill="#000000" font-family="sans-serif" font-size="14" lengthAdjust="spacing" textLength="114.0781" x="22" y="670.8857">imgOff?:number</text><text fill="#000000" font-family="sans-serif" font-size="14" lengthAdjust="spacing" textLength="114.3105" x="22" y="687.1826">bubOff?:number</text><text fill="#000000" font-family="sans-serif" font-size="14" lengthAdjust="spacing" textLength="114.2148" x="22" y="703.4795">durVar?:number</text><text fill="#000000" font-family="sans-serif" font-size="14" lengthAdjust="spacing" textLength="111.1797" x="22" y="719.7764">durOff?:number</text></g><!--entity Deck--><g id="elem_Deck"><rect fill="#F1F1F1" height="46.2969" rx="2.5" ry="2.5" style="stroke:#181818;stroke-width:0.5;" width="168.0439" x="670.5" y="638"/><rect fill="#F1F1F1" height="10" style="stroke:#181818;stroke-width:0.5;" width="15" x="818.5439" y="643"/><rect fill="#F1F1F1" height="2" style="stroke:#181818;stroke-width:0.5;" width="4" x="816.5439" y="645"/><rect fill="#F1F1F1" height="2" style="stroke:#181818;stroke-width:0.5;" width="4" x="816.5439" y="649"/><text fill="#000000" font-family="sans-serif" font-size="14" font-weight="bold" lengthAdjust="spacing" textLength="38.7256" x="685.5" y="670.9951">Deck</text><text fill="#000000" font-family="sans-serif" font-size="14" font-style="italic" lengthAdjust="spacing" textLength="89.3184" x="724.2256" y="670.9951">(Incomplete)</text></g><!--entity Form--><g id="elem_Form"><rect fill="#F1F1F1" height="46.2969" rx="2.5" ry="2.5" style="stroke:#181818;stroke-width:0.5;" width="169.9922" x="431.5" y="638"/><rect fill="#F1F1F1" height="10" style="stroke:#181818;stroke-width:0.5;" width="15" x="581.4922" y="643"/><rect fill="#F1F1F1" height="2" style="stroke:#181818;stroke-width:0.5;" width="4" x="579.4922" y="645"/><rect fill="#F1F1F1" height="2" style="stroke:#181818;stroke-width:0.5;" width="4" x="579.4922" y="649"/><text fill="#000000" font-family="sans-serif" font-size="14" font-weight="bold" lengthAdjust="spacing" textLength="40.6738" x="446.5" y="670.9951">Form</text><text fill="#000000" font-family="sans-serif" font-size="14" font-style="italic" lengthAdjust="spacing" textLength="89.3184" x="487.1738" y="670.9951">(Incomplete)</text></g><!--entity Slider--><g id="elem_Slider"><rect fill="#F1F1F1" height="46.2969" rx="2.5" ry="2.5" style="stroke:#181818;stroke-width:0.5;" width="175.4199" x="203" y="638"/><rect fill="#F1F1F1" height="10" style="stroke:#181818;stroke-width:0.5;" width="15" x="358.4199" y="643"/><rect fill="#F1F1F1" height="2" style="stroke:#181818;stroke-width:0.5;" width="4" x="356.4199" y="645"/><rect fill="#F1F1F1" height="2" style="stroke:#181818;stroke-width:0.5;" width="4" x="356.4199" y="649"/><text fill="#000000" font-family="sans-serif" font-size="14" font-weight="bold" lengthAdjust="spacing" textLength="46.1016" x="218" y="670.9951">Slider</text><text fill="#000000" font-family="sans-serif" font-size="14" font-style="italic" lengthAdjust="spacing" textLength="89.3184" x="264.1016" y="670.9951">(Incomplete)</text></g><!--entity Bubble--><g id="elem_Bubble"><rect fill="#F1F1F1" height="46.2969" rx="2.5" ry="2.5" style="stroke:#181818;stroke-width:0.5;" width="94.9746" x="40" y="384.5"/><rect fill="#F1F1F1" height="10" style="stroke:#181818;stroke-width:0.5;" width="15" x="114.9746" y="389.5"/><rect fill="#F1F1F1" height="2" style="stroke:#181818;stroke-width:0.5;" width="4" x="112.9746" y="391.5"/><rect fill="#F1F1F1" height="2" style="stroke:#181818;stroke-width:0.5;" width="4" x="112.9746" y="395.5"/><text fill="#000000" font-family="sans-serif" font-size="14" font-weight="bold" lengthAdjust="spacing" textLength="54.9746" x="55" y="417.4951">Bubble</text></g><!--entity Card--><g id="elem_Card"><rect fill="#F1F1F1" height="209.2656" rx="2.5" ry="2.5" style="stroke:#181818;stroke-width:0.5;" width="162.8486" x="690" y="303"/><rect fill="#F1F1F1" height="10" style="stroke:#181818;stroke-width:0.5;" width="15" x="832.8486" y="308"/><rect fill="#F1F1F1" height="2" style="stroke:#181818;stroke-width:0.5;" width="4" x="830.8486" y="310"/><rect fill="#F1F1F1" height="2" style="stroke:#181818;stroke-width:0.5;" width="4" x="830.8486" y="314"/><text fill="#000000" font-family="sans-serif" font-size="14" font-weight="bold" lengthAdjust="spacing" textLength="36.6475" x="705" y="335.9951">Card</text><text fill="#000000" font-family="sans-serif" font-size="14" lengthAdjust="spacing" textLength="77.2188" x="705" y="352.292">member: {</text><text fill="#000000" font-family="sans-serif" font-size="14" lengthAdjust="spacing" textLength="84.6084" x="709.4502" y="368.5889">name:string</text><text fill="#000000" font-family="sans-serif" font-size="14" lengthAdjust="spacing" textLength="100.3584" x="709.4502" y="384.8857">position:string</text><text fill="#000000" font-family="sans-serif" font-size="14" lengthAdjust="spacing" textLength="97.6035" x="709.4502" y="401.1826">avatar?:string</text><text fill="#000000" font-family="sans-serif" font-size="14" lengthAdjust="spacing" textLength="86.8096" x="709.4502" y="417.4795">color?:string</text><text fill="#000000" font-family="sans-serif" font-size="14" lengthAdjust="spacing" textLength="118.3984" x="709.4502" y="433.7764">summary?:string</text><text fill="#000000" font-family="sans-serif" font-size="14" lengthAdjust="spacing" textLength="94.8213" x="709.4502" y="450.0732">fbLink?:string</text><text fill="#000000" font-family="sans-serif" font-size="14" lengthAdjust="spacing" textLength="93.7686" x="709.4502" y="466.3701">lnLink?:string</text><text fill="#000000" font-family="sans-serif" font-size="14" lengthAdjust="spacing" textLength="38.0488" x="709.4502" y="482.667">itLink</text><text fill="#000000" font-family="sans-serif" font-size="14" lengthAdjust="spacing" textLength="8.9072" x="705" y="498.9639">}</text></g><!--entity DateField--><g id="elem_DateField"><rect fill="#F1F1F1" height="144.0781" rx="2.5" ry="2.5" style="stroke:#181818;stroke-width:0.5;" width="159.1436" x="496" y="335.5"/><rect fill="#F1F1F1" height="10" style="stroke:#181818;stroke-width:0.5;" width="15" x="635.1436" y="340.5"/><rect fill="#F1F1F1" height="2" style="stroke:#181818;stroke-width:0.5;" width="4" x="633.1436" y="342.5"/><rect fill="#F1F1F1" height="2" style="stroke:#181818;stroke-width:0.5;" width="4" x="633.1436" y="346.5"/><text fill="#000000" font-family="sans-serif" font-size="14" font-weight="bold" lengthAdjust="spacing" textLength="75.9336" x="511" y="368.4951">DateField</text><text fill="#000000" font-family="sans-serif" font-size="14" lengthAdjust="spacing" textLength="119.1436" x="511" y="384.792">rounded:boolean</text><text fill="#000000" font-family="sans-serif" font-size="14" lengthAdjust="spacing" textLength="103.667" x="511" y="401.0889">density?:string</text><text fill="#000000" font-family="sans-serif" font-size="14" lengthAdjust="spacing" textLength="72.0098" x="511" y="417.3857">min?:Date</text><text fill="#000000" font-family="sans-serif" font-size="14" lengthAdjust="spacing" textLength="76.1113" x="511" y="433.6826">max?:Date</text><text fill="#000000" font-family="sans-serif" font-size="14" lengthAdjust="spacing" textLength="101.7871" x="511" y="449.9795">variant?:string</text><text fill="#000000" font-family="sans-serif" font-size="14" lengthAdjust="spacing" textLength="103.7627" x="511" y="466.2764">rules?:function</text></g><g id="elem_GMN21"><path d="M445.5,18.5 L445.5,34.5 L410.57,38.5 L445.5,42.5 L445.5,58.7656 A0,0 0 0 0 445.5,58.7656 L627.8701,58.7656 A0,0 0 0 0 627.8701,58.7656 L627.8701,28.5 L617.8701,18.5 L445.5,18.5 A0,0 0 0 0 445.5,18.5 " fill="#FEFFDD" style="stroke:#181818;stroke-width:0.5;"/><path d="M617.8701,18.5 L617.8701,28.5 L627.8701,28.5 L617.8701,18.5 " fill="#FEFFDD" style="stroke:#181818;stroke-width:0.5;"/><text fill="#000000" font-family="sans-serif" font-size="13" lengthAdjust="spacing" textLength="161.3701" x="451.5" y="35.5669">Displays the GDSC Logo,</text><text fill="#000000" font-family="sans-serif" font-size="13" lengthAdjust="spacing" textLength="118.3647" x="451.5" y="50.6997">Name, and School</text></g><g id="elem_GMN24"><path d="M467.5,166.5 L467.5,182.5 L432.63,186.5 L467.5,190.5 L467.5,206.7656 A0,0 0 0 0 467.5,206.7656 L603.7861,206.7656 A0,0 0 0 0 603.7861,206.7656 L603.7861,176.5 L593.7861,166.5 L467.5,166.5 A0,0 0 0 0 467.5,166.5 " fill="#FEFFDD" style="stroke:#181818;stroke-width:0.5;"/><path d="M593.7861,166.5 L593.7861,176.5 L603.7861,176.5 L593.7861,166.5 " fill="#FEFFDD" style="stroke:#181818;stroke-width:0.5;"/><text fill="#000000" font-family="sans-serif" font-size="13" lengthAdjust="spacing" textLength="115.2861" x="473.5" y="183.5669">The main website</text><text fill="#000000" font-family="sans-serif" font-size="13" lengthAdjust="spacing" textLength="54.0757" x="473.5" y="198.6997">of GDSC</text></g><!--link Titlecard to GDSC--><g id="link_Titlecard_GDSC"><path d="M337.5,70.11 C337.5,92.43 337.5,116.85 337.5,140.86 " fill="none" id="Titlecard-to-GDSC" style="stroke:#181818;stroke-width:1.0;"/><polygon fill="#181818" points="337.5,146.86,341.5,137.86,337.5,141.86,333.5,137.86,337.5,146.86" style="stroke:#181818;stroke-width:1.0;"/><text fill="#000000" font-family="sans-serif" font-size="13" lengthAdjust="spacing" textLength="29.7832" x="338.5" y="113.0669">uses</text></g><!--link GDSC to Block--><g id="link_GDSC_Block"><path d="M337.5,226.15 C337.5,263.48 337.5,314.06 337.5,353.87 " fill="none" id="GDSC-to-Block" style="stroke:#181818;stroke-width:1.0;"/><polygon fill="#181818" points="337.5,359.87,341.5,350.87,337.5,354.87,333.5,350.87,337.5,359.87" style="stroke:#181818;stroke-width:1.0;"/><text fill="#000000" font-family="sans-serif" font-size="13" lengthAdjust="spacing" textLength="53.8726" x="338.5" y="269.0669">includes</text></g><!--link Block to Bubbles--><g id="link_Block_Bubbles"><path d="M291.06,455.22 C253.78,492.72 205.0602,541.735 162.5002,584.545 " fill="none" id="Block-to-Bubbles" style="stroke:#181818;stroke-width:1.0;"/><polygon fill="#181818" points="158.27,588.8,167.452,585.2376,161.7952,585.2541,161.7786,579.5973,158.27,588.8" style="stroke:#181818;stroke-width:1.0;"/><text fill="#000000" font-family="sans-serif" font-size="13" lengthAdjust="spacing" textLength="53.8726" x="199.5" y="555.0669">includes</text></g><!--link Block to Deck--><g id="link_Block_Deck"><path d="M368.76,455.18 C394.07,489.24 432.77,533.7 477.5,559 C533.64,590.76 558.82,567.11 619.5,589 C654.87,601.76 687.3747,619.1572 713.9047,634.8372 " fill="none" id="Block-to-Deck" style="stroke:#181818;stroke-width:1.0;"/><polygon fill="#181818" points="719.07,637.89,713.3573,629.8672,714.7656,635.346,709.2868,636.7543,719.07,637.89" style="stroke:#181818;stroke-width:1.0;"/><text fill="#000000" font-family="sans-serif" font-size="13" lengthAdjust="spacing" textLength="53.8726" x="478.5" y="555.0669">includes</text></g><!--link Block to Form--><g id="link_Block_Form"><path d="M343.67,455.26 C349.61,486.78 361.01,528.1 382.5,559 C406.12,592.96 439.6099,617.2583 469.3399,634.8983 " fill="none" id="Block-to-Form" style="stroke:#181818;stroke-width:1.0;"/><polygon fill="#181818" points="474.5,637.96,468.801,629.9275,470.2,635.4086,464.7188,636.8075,474.5,637.96" style="stroke:#181818;stroke-width:1.0;"/><text fill="#000000" font-family="sans-serif" font-size="13" lengthAdjust="spacing" textLength="53.8726" x="383.5" y="555.0669">includes</text></g><!--link Block to Slider--><g id="link_Block_Slider"><path d="M315.3,455.21 C304.58,480.32 292.9,512.17 287.5,542 C281.55,574.87 283.6793,607.7622 286.5293,631.6522 " fill="none" id="Block-to-Slider" style="stroke:#181818;stroke-width:1.0;"/><polygon fill="#181818" points="287.24,637.61,290.1457,628.1995,286.6477,632.6452,282.2021,629.1472,287.24,637.61" style="stroke:#181818;stroke-width:1.0;"/><text fill="#000000" font-family="sans-serif" font-size="13" lengthAdjust="spacing" textLength="53.8726" x="288.5" y="555.0669">includes</text></g><!--link Bubble to Bubbles--><g id="link_Bubble_Bubbles"><path d="M87.5,430.82 C87.5,465.92 87.5,529.53 87.5,582.87 " fill="none" id="Bubble-to-Bubbles" style="stroke:#181818;stroke-width:1.0;"/><polygon fill="#181818" points="87.5,588.87,91.5,579.87,87.5,583.87,83.5,579.87,87.5,588.87" style="stroke:#181818;stroke-width:1.0;"/><text fill="#000000" font-family="sans-serif" font-size="13" lengthAdjust="spacing" textLength="29.7832" x="88.5" y="555.0669">uses</text></g><!--link DateField to Form--><g id="link_DateField_Form"><path d="M558.83,479.56 C546.29,533.02 531.28,596.9985 523.06,632.0485 " fill="none" id="DateField-to-Form" style="stroke:#181818;stroke-width:1.0;"/><polygon fill="#181818" points="521.69,637.89,527.6393,630.041,522.8316,633.0221,519.8506,628.2144,521.69,637.89" style="stroke:#181818;stroke-width:1.0;"/><text fill="#000000" font-family="sans-serif" font-size="13" lengthAdjust="spacing" textLength="29.7832" x="542.5" y="555.0669">uses</text></g><!--link Card to Deck--><g id="link_Card_Deck"><path d="M764.49,512.25 C761.34,558.79 758.3146,603.5037 756.4046,631.7637 " fill="none" id="Card-to-Deck" style="stroke:#181818;stroke-width:1.0;"/><polygon fill="#181818" points="756,637.75,760.5978,629.0402,756.3372,632.7614,752.616,628.5008,756,637.75" style="stroke:#181818;stroke-width:1.0;"/><text fill="#000000" font-family="sans-serif" font-size="13" lengthAdjust="spacing" textLength="29.7832" x="762.5" y="555.0669">uses</text></g><text fill="#888888" font-family="sans-serif" font-size="10" lengthAdjust="spacing" textLength="264.9609" x="289.9438" y="747.3604">These are the components located at "/components"</text><!--SRC=[VLJ1QkCm4BtxAuQUTg4bTnDiM8UMXT8UKlRIx46onx6eB0L9RhOi- -yx6bME4q9FbjvxevdH6-jrBQiN5JIsmdNhbQnsvZYeW7KfhTKep6yG7cP5yKhwXyssIT8GyRhqmIcpfwqJnX-4GnFEusC4X_xGjdrBiMhSrpdmM9Tc6YMwdHdoaWDPdo8dAJNw52j6EyKSEQYrsZfVDlpXev_x_aJBIPxjkydz4kvil-1JufIEKsymrRnMrRUVb6iyQ0puVRrI5MiZpy9xwyQlX95duLQh3jrNqgHOT1x5YygOQMRFHeoLb_1tPu1k1sTBu62z2igQ4oBUHOZTpm3VtcBlft4KxcE1zF9HcRS5eCq5e484TkOVrzZaKTc8WFSAzMUPZcphiCkpGJUFXifRf1gLgSiOHKln9o_VXLCY6fvbRY9pwhAVJ1kRIpRaN4KnpolStLKyVL32vCbFNaUG9ujGPLezTSGaWAda_NKocdsTYUvUPvAPPnodkCZ61SvTBCzafidzV9R0O65iG71gFmIm_U971TWeVz3YmqCOCDt1eztRMsAUQ49kGPWEjkr0LXH8otZGvN7ytmAyq06ZK0QEACak92YJfyZUqiT5hKUWDu3Jni6sXju33tGRr5e78i3DweJV_0S0]--></g></svg>