
<svg xmlns="http://www.w3.org/2000/svg" xmlns:xlink="http://www.w3.org/1999/xlink" contentStyleType="text/css" height="643px" preserveAspectRatio="none" style="width:793px;height:643px;background:#FFFFFF;" version="1.1" viewBox="0 0 793 643" width="793px" zoomAndPan="magnify"><defs/><g><!--entity Titlecard--><g id="elem_Titlecard"><rect fill="#F1F1F1" height="62.5938" rx="2.5" ry="2.5" style="stroke:#181818;stroke-width:0.5;" width="146.4355" x="316.5" y="7"/><rect fill="#F1F1F1" height="10" style="stroke:#181818;stroke-width:0.5;" width="15" x="442.9355" y="12"/><rect fill="#F1F1F1" height="2" style="stroke:#181818;stroke-width:0.5;" width="4" x="440.9355" y="14"/><rect fill="#F1F1F1" height="2" style="stroke:#181818;stroke-width:0.5;" width="4" x="440.9355" y="18"/><text fill="#000000" font-family="sans-serif" font-size="14" font-weight="bold" lengthAdjust="spacing" textLength="70.0068" x="331.5" y="39.9951">Titlecard</text><text fill="#000000" font-family="sans-serif" font-size="14" lengthAdjust="spacing" textLength="106.4355" x="331.5" y="56.292">white?:boolean</text></g><!--entity GDSC--><g id="elem_GDSC"><rect fill="#F1F1F1" height="78.8906" rx="2.5" ry="2.5" style="stroke:#181818;stroke-width:0.5;" width="190.3086" x="294.5" y="147"/><rect fill="#F1F1F1" height="10" style="stroke:#181818;stroke-width:0.5;" width="15" x="464.8086" y="152"/><rect fill="#F1F1F1" height="2" style="stroke:#181818;stroke-width:0.5;" width="4" x="462.8086" y="154"/><rect fill="#F1F1F1" height="2" style="stroke:#181818;stroke-width:0.5;" width="4" x="462.8086" y="158"/><text fill="#000000" font-family="sans-serif" font-size="14" font-weight="bold" lengthAdjust="spacing" textLength="43.4697" x="309.5" y="179.9951">GDSC</text><text fill="#000000" font-family="sans-serif" font-size="14" lengthAdjust="spacing" textLength="79.707" x="309.5" y="196.292">title?:string</text><text fill="#000000" font-family="sans-serif" font-size="14" lengthAdjust="spacing" textLength="150.3086" x="309.5" y="212.5889">transparent?:boolean</text></g><!--entity Block--><g id="elem_Block"><rect fill="#F1F1F1" height="95.1875" rx="2.5" ry="2.5" style="stroke:#181818;stroke-width:0.5;" width="118.2373" x="330.5" y="303"/><rect fill="#F1F1F1" height="10" style="stroke:#181818;stroke-width:0.5;" width="15" x="428.7373" y="308"/><rect fill="#F1F1F1" height="2" style="stroke:#181818;stroke-width:0.5;" width="4" x="426.7373" y="310"/><rect fill="#F1F1F1" height="2" style="stroke:#181818;stroke-width:0.5;" width="4" x="426.7373" y="314"/><text fill="#000000" font-family="sans-serif" font-size="14" font-weight="bold" lengthAdjust="spacing" textLength="42.6973" x="345.5" y="335.9951">Block</text><text fill="#000000" font-family="sans-serif" font-size="14" lengthAdjust="spacing" textLength="74.0332" x="345.5" y="352.292">img?string</text><text fill="#000000" font-family="sans-serif" font-size="14" lengthAdjust="spacing" textLength="78.2373" x="345.5" y="368.5889">w?:number</text><text fill="#000000" font-family="sans-serif" font-size="14" lengthAdjust="spacing" textLength="75.6602" x="345.5" y="384.8857">h?:number</text></g><!--entity Bubble--><g id="elem_Bubble"><rect fill="#F1F1F1" height="144.0781" rx="2.5" ry="2.5" style="stroke:#181818;stroke-width:0.5;" width="160.8047" x="7" y="475"/><rect fill="#F1F1F1" height="10" style="stroke:#181818;stroke-width:0.5;" width="15" x="147.8047" y="480"/><rect fill="#F1F1F1" height="2" style="stroke:#181818;stroke-width:0.5;" width="4" x="145.8047" y="482"/><rect fill="#F1F1F1" height="2" style="stroke:#181818;stroke-width:0.5;" width="4" x="145.8047" y="486"/><text fill="#000000" font-family="sans-serif" font-size="14" font-weight="bold" lengthAdjust="spacing" textLength="54.9746" x="22" y="507.9951">Bubble</text><text fill="#000000" font-family="sans-serif" font-size="14" lengthAdjust="spacing" textLength="120.8047" x="22" y="524.292">amount?:number</text><text fill="#000000" font-family="sans-serif" font-size="14" lengthAdjust="spacing" textLength="90.3301" x="22" y="540.5889">colors:Colors</text><text fill="#000000" font-family="sans-serif" font-size="14" lengthAdjust="spacing" textLength="114.0781" x="22" y="556.8857">imgOff?:number</text><text fill="#000000" font-family="sans-serif" font-size="14" lengthAdjust="spacing" textLength="114.3105" x="22" y="573.1826">bubOff?:number</text><text fill="#000000" font-family="sans-serif" font-size="14" lengthAdjust="spacing" textLength="114.2148" x="22" y="589.4795">durVar?:number</text><text fill="#000000" font-family="sans-serif" font-size="14" lengthAdjust="spacing" textLength="111.1797" x="22" y="605.7764">durOff?:number</text></g><!--entity Deck--><g id="elem_Deck"><rect fill="#F1F1F1" height="46.2969" rx="2.5" ry="2.5" style="stroke:#181818;stroke-width:0.5;" width="168.0439" x="203.5" y="524"/><rect fill="#F1F1F1" height="10" style="stroke:#181818;stroke-width:0.5;" width="15" x="351.5439" y="529"/><rect fill="#F1F1F1" height="2" style="stroke:#181818;stroke-width:0.5;" width="4" x="349.5439" y="531"/><rect fill="#F1F1F1" height="2" style="stroke:#181818;stroke-width:0.5;" width="4" x="349.5439" y="535"/><text fill="#000000" font-family="sans-serif" font-size="14" font-weight="bold" lengthAdjust="spacing" textLength="38.7256" x="218.5" y="556.9951">Deck</text><text fill="#000000" font-family="sans-serif" font-size="14" font-style="italic" lengthAdjust="spacing" textLength="89.3184" x="257.2256" y="556.9951">(Incomplete)</text></g><!--entity Form--><g id="elem_Form"><rect fill="#F1F1F1" height="46.2969" rx="2.5" ry="2.5" style="stroke:#181818;stroke-width:0.5;" width="169.9922" x="406.5" y="524"/><rect fill="#F1F1F1" height="10" style="stroke:#181818;stroke-width:0.5;" width="15" x="556.4922" y="529"/><rect fill="#F1F1F1" height="2" style="stroke:#181818;stroke-width:0.5;" width="4" x="554.4922" y="531"/><rect fill="#F1F1F1" height="2" style="stroke:#181818;stroke-width:0.5;" width="4" x="554.4922" y="535"/><text fill="#000000" font-family="sans-serif" font-size="14" font-weight="bold" lengthAdjust="spacing" textLength="40.6738" x="421.5" y="556.9951">Form</text><text fill="#000000" font-family="sans-serif" font-size="14" font-style="italic" lengthAdjust="spacing" textLength="89.3184" x="462.1738" y="556.9951">(Incomplete)</text></g><!--entity Slider--><g id="elem_Slider"><rect fill="#F1F1F1" height="46.2969" rx="2.5" ry="2.5" style="stroke:#181818;stroke-width:0.5;" width="175.4199" x="612" y="524"/><rect fill="#F1F1F1" height="10" style="stroke:#181818;stroke-width:0.5;" width="15" x="767.4199" y="529"/><rect fill="#F1F1F1" height="2" style="stroke:#181818;stroke-width:0.5;" width="4" x="765.4199" y="531"/><rect fill="#F1F1F1" height="2" style="stroke:#181818;stroke-width:0.5;" width="4" x="765.4199" y="535"/><text fill="#000000" font-family="sans-serif" font-size="14" font-weight="bold" lengthAdjust="spacing" textLength="46.1016" x="627" y="556.9951">Slider</text><text fill="#000000" font-family="sans-serif" font-size="14" font-style="italic" lengthAdjust="spacing" textLength="89.3184" x="673.1016" y="556.9951">(Incomplete)</text></g><g id="elem_GMN15"><path d="M497.5,18.5 L497.5,34.5 L462.57,38.5 L497.5,42.5 L497.5,58.7656 A0,0 0 0 0 497.5,58.7656 L679.8701,58.7656 A0,0 0 0 0 679.8701,58.7656 L679.8701,28.5 L669.8701,18.5 L497.5,18.5 A0,0 0 0 0 497.5,18.5 " fill="#FEFFDD" style="stroke:#181818;stroke-width:0.5;"/><path d="M669.8701,18.5 L669.8701,28.5 L679.8701,28.5 L669.8701,18.5 " fill="#FEFFDD" style="stroke:#181818;stroke-width:0.5;"/><text fill="#000000" font-family="sans-serif" font-size="13" lengthAdjust="spacing" textLength="161.3701" x="503.5" y="35.5669">Displays the GDSC Logo,</text><text fill="#000000" font-family="sans-serif" font-size="13" lengthAdjust="spacing" textLength="118.3647" x="503.5" y="50.6997">Name, and School</text></g><g id="elem_GMN18"><path d="M519.5,166.5 L519.5,182.5 L484.63,186.5 L519.5,190.5 L519.5,206.7656 A0,0 0 0 0 519.5,206.7656 L655.7861,206.7656 A0,0 0 0 0 655.7861,206.7656 L655.7861,176.5 L645.7861,166.5 L519.5,166.5 A0,0 0 0 0 519.5,166.5 " fill="#FEFFDD" style="stroke:#181818;stroke-width:0.5;"/><path d="M645.7861,166.5 L645.7861,176.5 L655.7861,176.5 L645.7861,166.5 " fill="#FEFFDD" style="stroke:#181818;stroke-width:0.5;"/><text fill="#000000" font-family="sans-serif" font-size="13" lengthAdjust="spacing" textLength="115.2861" x="525.5" y="183.5669">The main website</text><text fill="#000000" font-family="sans-serif" font-size="13" lengthAdjust="spacing" textLength="54.0757" x="525.5" y="198.6997">of GDSC</text></g><!--link Titlecard to GDSC--><g id="link_Titlecard_GDSC"><path d="M389.5,70.11 C389.5,92.43 389.5,116.85 389.5,140.86 " fill="none" id="Titlecard-to-GDSC" style="stroke:#181818;stroke-width:1.0;"/><polygon fill="#181818" points="389.5,146.86,393.5,137.86,389.5,141.86,385.5,137.86,389.5,146.86" style="stroke:#181818;stroke-width:1.0;"/><text fill="#000000" font-family="sans-serif" font-size="13" lengthAdjust="spacing" textLength="29.7832" x="390.5" y="113.0669">uses</text></g><!--link GDSC to Block--><g id="link_GDSC_Block"><path d="M389.5,226.3 C389.5,249.33 389.5,272.67 389.5,296.94 " fill="none" id="GDSC-to-Block" style="stroke:#181818;stroke-width:1.0;"/><polygon fill="#181818" points="389.5,302.94,393.5,293.94,389.5,297.94,385.5,293.94,389.5,302.94" style="stroke:#181818;stroke-width:1.0;"/><text fill="#000000" font-family="sans-serif" font-size="13" lengthAdjust="spacing" textLength="53.8726" x="390.5" y="269.0669">includes</text></g><!--link Block to Bubble--><g id="link_Block_Bubble"><path d="M330.22,385.64 C289.07,409.76 233.28,443.3 185.5,475 C179.81,478.77 178.9116,479.3125 173.0816,483.3525 " fill="none" id="Block-to-Bubble" style="stroke:#181818;stroke-width:1.0;"/><polygon fill="#181818" points="168.15,486.77,177.8258,484.9316,172.2597,483.9221,173.2691,478.3561,168.15,486.77" style="stroke:#181818;stroke-width:1.0;"/><text fill="#000000" font-family="sans-serif" font-size="13" lengthAdjust="spacing" textLength="53.8726" x="258.5" y="441.0669">includes</text></g><!--link Block to Deck--><g id="link_Block_Deck"><path d="M365.07,398.09 C344.2,437.87 317.8968,488.0364 301.9268,518.4864 " fill="none" id="Block-to-Deck" style="stroke:#181818;stroke-width:1.0;"/><polygon fill="#181818" points="299.14,523.8,306.8625,517.6875,301.4623,519.372,299.7778,513.9718,299.14,523.8" style="stroke:#181818;stroke-width:1.0;"/><text fill="#000000" font-family="sans-serif" font-size="13" lengthAdjust="spacing" textLength="53.8726" x="349.5" y="441.0669">includes</text></g><!--link Block to Form--><g id="link_Block_Form"><path d="M413.93,398.09 C434.8,437.87 461.1032,488.0364 477.0732,518.4864 " fill="none" id="Block-to-Form" style="stroke:#181818;stroke-width:1.0;"/><polygon fill="#181818" points="479.86,523.8,479.2222,513.9718,477.5377,519.372,472.1375,517.6875,479.86,523.8" style="stroke:#181818;stroke-width:1.0;"/><text fill="#000000" font-family="sans-serif" font-size="13" lengthAdjust="spacing" textLength="53.8726" x="438.5" y="441.0669">includes</text></g><!--link Block to Slider--><g id="link_Block_Slider"><path d="M448.86,386.46 C489.8,410.81 545.32,444.3 593.5,475 C618.53,490.95 641.4397,506.2743 662.3197,520.4843 " fill="none" id="Block-to-Slider" style="stroke:#181818;stroke-width:1.0;"/><polygon fill="#181818" points="667.28,523.86,662.0901,515.4895,663.1464,521.0469,657.5891,522.1032,667.28,523.86" style="stroke:#181818;stroke-width:1.0;"/><text fill="#000000" font-family="sans-serif" font-size="13" lengthAdjust="spacing" textLength="53.8726" x="545.5" y="441.0669">includes</text></g><text fill="#888888" font-family="sans-serif" font-size="10" lengthAdjust="spacing" textLength="264.9609" x="257.2295" y="633.3604">These are the components located at "/components"</text><!--SRC=[VL9BQyCm3BxdLuYUDcZfFOG4rj8n6DkXPPTs1pjH4ZF7BhP3sR-VB9C-Hkd9qlUGPA5z8SkT2XfhuPfYASk3EVKgO9LBQpKAymt2mrcHxKd_kjwkaZH4lCfzSCfqb3fX_54uDE7M7nriVT6s_abUDNJLP3nLkHa7YUvW-Yba8-kJSvHIOxAAmOwnnUIfhRREvoj-kF9dsrveESgRl1dTbt0t-HMV-d8tRhp6D76XogStQZKSDGPyBfQgP6daMRYnRdWaZ3mBjrerw1v9aoBBpdk7nQBaBK8EeqUVSHn1tX2XojHwR8X905FyYVjSdFe-4yUypwIfhhdCs83WLDS7iEtLcG2ibJzgyUiXz9WcVxUTdHFp8GQSWp0DREkUZYH32cEX_-NuQW1sL60Goi09fQVJ96WYByxMqkEYrYFG1NBRk5Xhw1ezq2T4m0P4WDdoWi_-0000]--></g></svg>